<?xml version="1.0" standalone="no"?>
<!DOCTYPE svg PUBLIC "-//W3C//DTD SVG 20010904//EN"
 "http://www.w3.org/TR/2001/REC-SVG-20010904/DTD/svg10.dtd">
<svg version="1.0" xmlns="http://www.w3.org/2000/svg"
 width="256.000000pt" height="256.000000pt" viewBox="0 0 256.000000 256.000000"
 preserveAspectRatio="xMidYMid meet">
<metadata>
Created by potrace 1.11, written by Peter Selinger 2001-2013
</metadata>
<g transform="translate(0.000000,256.000000) scale(0.100000,-0.100000)"
fill="#000000" stroke="none">
<path d="M1050 2504 c-207 -38 -410 -113 -465 -174 -18 -19 -18 -21 0 -40 10
-11 37 -30 61 -41 l42 -21 -24 -52 c-37 -81 -56 -189 -60 -341 -4 -161 8 -260
43 -360 54 -150 109 -237 169 -270 19 -10 34 -21 34 -24 -1 -16 -30 -40 -84
-70 -69 -40 -174 -135 -228 -208 -86 -117 -153 -299 -151 -408 1 -51 39 -80
127 -96 43 -7 72 -17 69 -22 -3 -6 -1 -7 6 -3 11 7 88 -3 201 -25 71 -15 83
-16 113 -18 19 -1 26 -5 21 -13 -4 -7 -3 -8 5 -4 14 9 113 -3 107 -13 -3 -4
12 -5 31 -3 33 4 35 3 30 -17 -3 -11 -1 -24 4 -27 5 -3 9 -2 8 3 -5 28 2 34
34 28 17 -3 41 -8 53 -10 11 -1 45 -8 75 -14 63 -12 129 -23 147 -24 6 0 12
-4 12 -8 0 -4 -6 -10 -12 -12 -10 -4 -10 -6 -1 -6 6 -1 15 4 18 9 3 6 13 10
21 10 8 0 13 -3 10 -8 -2 -4 14 -6 36 -4 26 3 38 1 34 -6 -4 -6 2 -8 14 -5 11
3 28 2 37 -2 10 -4 34 -10 53 -12 19 -2 44 -6 55 -8 11 -2 41 -7 68 -11 26 -3
47 -9 47 -13 0 -3 38 -6 84 -6 46 0 82 3 79 8 -2 4 3 7 12 7 25 0 107 46 147
83 57 51 81 114 75 195 -6 88 -21 136 -80 256 -90 184 -199 290 -407 396 -58
29 -107 57 -108 62 -2 4 -8 6 -13 3 -11 -7 -105 88 -141 143 -36 53 -39 125
-8 142 11 6 18 15 15 21 -4 5 -1 9 5 9 6 0 9 4 5 9 -3 5 -1 12 5 16 5 3 10 0
10 -7 1 -7 7 -2 14 12 8 14 12 28 10 32 -3 4 1 5 9 2 10 -4 15 1 14 13 -1 10
4 17 11 15 8 -1 11 2 7 8 -4 6 1 18 11 25 11 8 15 15 10 15 -5 0 -3 7 4 15 6
8 8 20 4 26 -4 7 -3 9 4 5 6 -3 13 -2 17 4 3 5 0 10 -7 10 -10 0 -10 2 1 9 7
5 11 14 7 20 -5 7 -1 9 11 4 10 -3 15 -3 11 2 -4 4 -3 14 3 22 6 7 8 13 5 13
-4 0 -2 9 4 20 7 14 7 20 0 20 -5 0 -10 5 -10 11 0 5 5 7 12 3 8 -5 9 0 6 14
-4 12 -2 20 2 17 5 -3 8 3 8 12 0 10 2 30 5 46 4 17 1 27 -6 27 -9 0 -8 3 1 8
12 8 11 68 -2 157 -2 17 -4 38 -5 48 -1 10 -5 16 -10 13 -5 -4 -7 4 -3 16 3
13 1 19 -5 15 -7 -4 -9 0 -6 11 6 25 -31 118 -46 114 -7 -1 -10 2 -6 8 8 13
-50 96 -78 111 -12 7 -28 18 -35 26 -8 7 -18 11 -23 8 -5 -4 -9 -2 -9 3 0 4
-17 17 -37 27 -31 16 -63 19 -178 21 -77 1 -151 0 -165 -2z m576 -744 c0 -12
-4 -16 -9 -11 -5 5 -6 14 -3 20 10 15 12 14 12 -9z"/>
<path d="M807 319 c7 -7 15 -10 18 -7 3 3 -2 9 -12 12 -14 6 -15 5 -6 -5z"/>
<path d="M1050 259 c0 -5 5 -7 10 -4 6 3 10 8 10 11 0 2 -4 4 -10 4 -5 0 -10
-5 -10 -11z"/>
<path d="M1370 219 c0 -5 5 -7 10 -4 6 3 10 8 10 11 0 2 -4 4 -10 4 -5 0 -10
-5 -10 -11z"/>
<path d="M1570 179 c0 -5 5 -7 10 -4 6 3 10 8 10 11 0 2 -4 4 -10 4 -5 0 -10
-5 -10 -11z"/>
</g>
</svg>
